<svg width="292" height="123" viewBox="0 0 292 123" fill="none" xmlns="http://www.w3.org/2000/svg">
    <g filter="url(#7jv4ptqj4a)">
        <mask id="juodgnwd4b" fill="#fff">
            <path fill-rule="evenodd" clip-rule="evenodd" d="M6 0a6 6 0 0 0-6 6v108a6 6 0 0 0 6 6h268a6 6 0 0 0 6-6V31.305c1.988-.139 3.967-.11 5.919.078 1.741.167 3.035-1.696 1.951-3.068a32.415 32.415 0 0 0-7.87-7.14V6a6 6 0 0 0-6-6H6z"/>
        </mask>
        <path fill-rule="evenodd" clip-rule="evenodd" d="M6 0a6 6 0 0 0-6 6v108a6 6 0 0 0 6 6h268a6 6 0 0 0 6-6V31.305c1.988-.139 3.967-.11 5.919.078 1.741.167 3.035-1.696 1.951-3.068a32.415 32.415 0 0 0-7.87-7.14V6a6 6 0 0 0-6-6H6z" fill="#fff"/>
        <path d="m280 31.305-.105-1.496-1.395.098v1.398h1.5zm5.919.078.144-1.493-.144 1.493zm1.951-3.068-1.177.93 1.177-.93zm-7.87-7.14h-1.5v.818l.687.443.813-1.26zM1.5 6A4.5 4.5 0 0 1 6 1.5v-3A7.5 7.5 0 0 0-1.5 6h3zm0 108V6h-3v108h3zm4.5 4.5a4.5 4.5 0 0 1-4.5-4.5h-3a7.5 7.5 0 0 0 7.5 7.5v-3zm268 0H6v3h268v-3zm4.5-4.5a4.5 4.5 0 0 1-4.5 4.5v3a7.5 7.5 0 0 0 7.5-7.5h-3zm0-82.695V114h3V31.305h-3zm7.563-1.415a37.251 37.251 0 0 0-6.168-.08l.21 2.992c1.904-.134 3.8-.106 5.671.074l.287-2.986zm.63-.644c.07.087.074.14.075.167a.354.354 0 0 1-.067.188.68.68 0 0 1-.638.289l-.287 2.986a3.68 3.68 0 0 0 3.431-1.625c.716-1.088.832-2.61-.16-3.866l-2.354 1.86zm-7.506-6.81a30.911 30.911 0 0 1 7.506 6.81l2.354-1.86a33.92 33.92 0 0 0-8.234-7.472l-1.626 2.522zM278.5 6v15.175h3V6h-3zM274 1.5a4.5 4.5 0 0 1 4.5 4.5h3a7.5 7.5 0 0 0-7.5-7.5v3zM6 1.5h268v-3H6v3z" fill="#D9D9D9" mask="url(#juodgnwd4b)"/>
    </g>
    <defs>
        <filter id="7jv4ptqj4a" x="0" y="0" width="291.268" height="123" filterUnits="userSpaceOnUse" color-interpolation-filters="sRGB">
            <feFlood flood-opacity="0" result="BackgroundImageFix"/>
            <feColorMatrix in="SourceAlpha" values="0 0 0 0 0 0 0 0 0 0 0 0 0 0 0 0 0 0 127 0" result="hardAlpha"/>
            <feOffset dx="3" dy="3"/>
            <feComposite in2="hardAlpha" operator="out"/>
            <feColorMatrix values="0 0 0 0 0.941667 0 0 0 0 0.941667 0 0 0 0 0.941667 0 0 0 1 0"/>
            <feBlend in2="BackgroundImageFix" result="effect1_dropShadow_1137_16531"/>
            <feBlend in="SourceGraphic" in2="effect1_dropShadow_1137_16531" result="shape"/>
        </filter>
    </defs>
</svg>
