<svg width="30" height="30" viewBox="0 0 30 30" fill="none" xmlns="http://www.w3.org/2000/svg">
    <path d="M30 15c0-8.285-6.715-15-15-15S0 6.715 0 15c0 7.488 5.484 13.693 12.656 14.818V19.336H8.848V15h3.808v-3.305c0-3.759 2.239-5.836 5.666-5.836 1.64 0 3.358.293 3.358.293v3.692h-1.893c-1.863 0-2.443 1.157-2.443 2.344V15h4.16l-.665 4.336h-3.495v10.482C24.516 28.693 30 22.488 30 15z" fill="#1877F2"/>
    <path d="M20.839 19.336 21.504 15h-4.16v-2.813c0-1.186.58-2.343 2.443-2.343h1.893V6.152s-1.717-.293-3.358-.293c-3.427 0-5.666 2.077-5.666 5.836V15H8.848v4.336h3.808v10.482c.765.12 1.547.182 2.344.182.797 0 1.58-.061 2.344-.182V19.336h3.495z" fill="#fff"/>
</svg>
