<svg width="30" height="30" viewBox="0 0 30 30" fill="none" xmlns="http://www.w3.org/2000/svg">
    <path fill="#fff" d="M0 0h30v30H0z"/>
    <path fill-rule="evenodd" clip-rule="evenodd" d="M12.852 6.875h4.25zm-.375 15a2.5 2.5 0 0 0 5 0m-2.5-12.717a6.5 6.5 0 0 1 6.243 5.54c.112 1.273.364 2.53.75 3.75.514.688.625 1.598.29 2.39a2.085 2.085 0 0 1-1.774 1.033H9.466a2.085 2.085 0 0 1-1.775-1.034 2.422 2.422 0 0 1 .286-2.386c.386-1.219.637-2.476.75-3.75a6.5 6.5 0 0 1 6.25-5.543z" fill="#C82027"/>
    <path d="M12.852 6.125a.75.75 0 0 0 0 1.5v-1.5zm4.25 1.5a.75.75 0 0 0 0-1.5v1.5zm-3.875 14.25a.75.75 0 0 0-1.5 0h1.5zm5 0a.75.75 0 0 0-1.5 0h1.5zm-3.25-12.717.022-.75h-.043l.021.75zm6.243 5.54.747-.067a.736.736 0 0 0-.005-.044l-.742.11zm.75 3.75-.715.226a.75.75 0 0 0 .114.222l.6-.448zm.29 2.39.649.378a.742.742 0 0 0 .043-.087l-.691-.292zm-1.774 1.033v.75h.01l-.01-.75zm-11.02 0-.01.75h.01v-.75zM7.69 20.837 7 21.13c.013.03.027.059.043.087l.648-.379zm.286-2.386.602.447a.75.75 0 0 0 .113-.22l-.715-.227zm.75-3.75-.742-.11a.753.753 0 0 0-.005.044l.747.066zm4.125-7.076h4.25v-1.5h-4.25v1.5zm-1.125 14.25a3.25 3.25 0 0 0 3.25 3.25v-1.5a1.75 1.75 0 0 1-1.75-1.75h-1.5zm3.25 3.25a3.25 3.25 0 0 0 3.25-3.25h-1.5a1.75 1.75 0 0 1-1.75 1.75v1.5zm-.021-15.218a5.75 5.75 0 0 1 5.522 4.901l1.483-.221A7.25 7.25 0 0 0 15 8.407l-.043 1.5zm5.517 4.857c.117 1.328.38 2.639.782 3.91l1.43-.453c-.37-1.167-.61-2.37-.718-3.59l-1.494.133zm.896 4.132c.355.476.431 1.104.2 1.65l1.383.583a3.172 3.172 0 0 0-.381-3.13l-1.202.897zm.244 1.563a1.335 1.335 0 0 1-1.136.662l.018 1.5a2.835 2.835 0 0 0 2.414-1.405l-1.296-.757zm-1.127.662H9.466v1.5h11.02v-1.5zm-11.01 0a1.335 1.335 0 0 1-1.137-.662l-1.296.757a2.835 2.835 0 0 0 2.414 1.405l.018-1.5zm-1.094-.575a1.673 1.673 0 0 1 .197-1.648l-1.204-.894A3.172 3.172 0 0 0 7 21.13l1.382-.583zm.31-1.869c.402-1.27.665-2.582.782-3.91l-1.494-.132a16.813 16.813 0 0 1-.718 3.59l1.43.452zm.777-3.866a5.75 5.75 0 0 1 5.529-4.904l-.042-1.5a7.25 7.25 0 0 0-6.97 6.184l1.483.22z" fill="#C82027"/>
    <path d="M12 16.273 14.333 19 19 14" stroke="#fff" stroke-width="1.5" stroke-linecap="round" stroke-linejoin="round"/>
</svg>
