<svg width="27" height="16" viewBox="0 0 27 16" fill="none" xmlns="http://www.w3.org/2000/svg">
    <path d="m16.176 11.58-.116.044a.934.934 0 0 1-.972-.2l-.001-.002h0a.933.933 0 0 1-.247-.942l.012-.078c.008-.072.018-.17.026-.29a14.856 14.856 0 0 0 .007-1.727 4.172 4.172 0 0 0-.032-.315c-.012-.078-.02-.11-.02-.11v.003a4.848 4.848 0 0 1 2.84-6.232 4.847 4.847 0 0 1 6.232 2.84l-7.73 7.01zm0 0 .403 1.079a1.397 1.397 0 0 0 1.797.818l1.201-.449c.119.143.244.299.36.454.12.16.225.31.304.439.039.064.068.117.088.158.02.04.025.057.025.057s0 0 0 0m-4.178-2.556 7.73-7.009c.176.473.277.966.301 1.466.186 1.588.734 2.872 1.668 3.962l.002.002a.934.934 0 0 1 .166.924v.001c-.11.3-.364.63-.612.916a11.61 11.61 0 0 1-1.017 1.017c-.782.697-1.792 1.442-2.777 1.885l-.017.007h-.002a.93.93 0 0 1-1.264-.616m0 .001-.001-.003.725-.193-.724.195v.001zM10.824 11.58l.116.044c.339.126.716.044.972-.2l.001-.002h0a.933.933 0 0 0 .247-.942l-.012-.078a5.533 5.533 0 0 1-.026-.29 14.856 14.856 0 0 1-.007-1.727c.009-.127.02-.234.032-.315.012-.078.02-.11.02-.11v.003a4.848 4.848 0 0 0-2.84-6.232 4.847 4.847 0 0 0-6.232 2.84l7.73 7.01zm0 0-.403 1.079a1.397 1.397 0 0 1-1.797.818l-1.201-.449c-.119.143-.244.299-.36.454-.12.16-.225.31-.304.439a1.924 1.924 0 0 0-.088.158c-.02.04-.025.057-.025.057s0 0 0 0m4.178-2.556-7.73-7.009a4.828 4.828 0 0 0-.301 1.466C2.607 7.625 2.059 8.91 1.125 10L1.123 10a.933.933 0 0 0-.166.924v.001c.11.3.364.63.612.916.272.313.622.665 1.017 1.017.782.697 1.791 1.442 2.778 1.885a.91.91 0 0 0 .016.007h.002a.93.93 0 0 0 1.264-.616m0 .001.001-.003-.725-.193.724.195v.001zm-1.277.61s0 0 0 0h0z" stroke="#fff" stroke-width="1.5" stroke-linecap="round" stroke-linejoin="round"/>
</svg>
