<svg width="26" height="16" viewBox="0 0 26 16" fill="none" xmlns="http://www.w3.org/2000/svg">
    <path d="m15.172 11.885-.119.045a.912.912 0 0 1-.97-.2l-.002-.002h0a.947.947 0 0 1-.236-.94c0-.003.005-.028.011-.083a5.86 5.86 0 0 0 .026-.3 15.749 15.749 0 0 0 .008-1.784 4.427 4.427 0 0 0-.033-.328c-.01-.072-.019-.108-.02-.116-.002-.003-.002-.004 0-.001-.927-2.553.328-5.434 2.843-6.404 2.515-.969 5.297.357 6.223 2.91l-7.731 7.203zm0 0 .41 1.13a1.374 1.374 0 0 0 1.787.826l1.2-.462c.12.148.248.312.367.476.12.165.225.32.305.454.039.067.069.123.09.167.019.04.025.061.026.064 0 0 0 0 0 0l.72-.204m-4.905-2.451.7-.27.41 1.13c.124.344.497.52.831.39l1.691-.65c.378.434 1.153 1.391 1.274 1.851m0 0c.014.054.05.098.098.122a.176.176 0 0 0 .142.007l.006-.003a.085.085 0 0 1 .005-.002c1.78-.824 3.78-2.85 4.009-3.495a.193.193 0 0 0-.033-.188c-1.044-1.256-1.648-2.736-1.846-4.524m-2.381 8.084-.721.2a.925.925 0 0 0 .484.6l.335-.679-.336.679a.91.91 0 0 0 .772.017h.002m1.845-8.9.744-.043v-.028m-.744.07.74-.095.003.025m-.743.07.444-1.571c.175.484.276.988.3 1.501m0 0c.186 1.644.737 2.974 1.675 4.103l.002.002a.951.951 0 0 1 .16.922h-.001c-.109.307-.362.648-.61.943-.273.322-.623.685-1.018 1.048-.782.718-1.793 1.487-2.78 1.945l-.017.007m0 0 .007-.003h.002m-.009.003a.89.89 0 0 1-.03.012c.015-.005.025-.01.031-.013l.008-.003m0 0h.001-.001zm-6.772-4.381h0zM10.828 11.885l.119.045a.912.912 0 0 0 .97-.2l.002-.002h0a.947.947 0 0 0 .236-.94c0-.003-.005-.028-.011-.083a5.86 5.86 0 0 1-.026-.3 15.749 15.749 0 0 1-.008-1.784c.01-.132.02-.243.033-.328.01-.072.019-.108.02-.116.002-.003.002-.004 0-.001.927-2.553-.328-5.434-2.843-6.404-2.515-.969-5.297.357-6.223 2.91l7.731 7.203zm0 0-.41 1.13a1.374 1.374 0 0 1-1.787.826l-1.2-.462c-.12.148-.248.312-.367.476a5.95 5.95 0 0 0-.305.454c-.039.067-.069.123-.09.167-.019.04-.025.061-.026.064 0 0 0 0 0 0l-.72-.204m4.905-2.451-.7-.27-.41 1.13a.642.642 0 0 1-.831.39l-1.691-.65c-.378.434-1.153 1.391-1.274 1.851m0 0a.188.188 0 0 1-.098.122.176.176 0 0 1-.153.002c-1.78-.824-3.78-2.85-4.009-3.495a.194.194 0 0 1 .033-.188C2.739 9.521 3.343 8.041 3.54 6.253m2.381 8.084.721.2a.926.926 0 0 1-.484.6l-.335-.679.336.679a.91.91 0 0 1-.772.017h-.002m-1.845-8.9-.745-.043.002-.028m.743.07-.74-.095-.003.025m.743.07-.444-1.571a5.072 5.072 0 0 0-.3 1.501m0 0c-.186 1.644-.737 2.974-1.675 4.103l-.002.002a.95.95 0 0 0-.16.922h.001c.109.307.362.648.61.943.273.322.623.685 1.018 1.048.782.718 1.793 1.487 2.78 1.945a.97.97 0 0 0 .017.007m0 0-.007-.003h-.002m.009.003a.99.99 0 0 0 .03.012l-.031-.013-.008-.003m0 0h0-.001.001zm6.772-4.381h0z" stroke="#C82027" stroke-width="1.5" stroke-linecap="round" stroke-linejoin="round"/>
</svg>
