<svg xmlns="http://www.w3.org/2000/svg" width="24.004" height="16" viewBox="0 0 24.004 16">
  <path id="img_hat_white" d="M14.144,15.782A11.139,11.139,0,0,1,11,14.6a11.512,11.512,0,0,1-2.539-1.9L1.513,15.079l-.227-.438a12.906,12.906,0,0,1-.939-2.664A10.5,10.5,0,0,1,.464,6.185,9.333,9.333,0,0,1,5.868.709,7.914,7.914,0,0,1,9.125,0a8.1,8.1,0,0,1,3.612.861,8.988,8.988,0,0,1,2.831,2.207,12.653,12.653,0,0,1,2.443,4.979,27.258,27.258,0,0,1,2.6.95c2.182.937,3.255,1.827,3.376,2.8a2.1,2.1,0,0,1-.588,1.679,5.291,5.291,0,0,1-1.5,1.111,13.836,13.836,0,0,1-3.619,1.222A10.847,10.847,0,0,1,16.271,16,10.451,10.451,0,0,1,14.144,15.782Zm-2.563-2.2A9.993,9.993,0,0,0,14.4,14.631a9.513,9.513,0,0,0,3.68.02,12.684,12.684,0,0,0,3.3-1.112,4.194,4.194,0,0,0,1.178-.856.887.887,0,0,0,.3-.735c-.01-.079-.094-.373-.768-.848a10.8,10.8,0,0,0-1.914-1.015c-.948-.407-1.892-.721-2.4-.881l-.014.005L9.695,12.267A10.806,10.806,0,0,0,11.581,13.585ZM1.542,6.573a10.563,10.563,0,0,0,.55,7.066l6.781-2.317,1.792-.68a10.114,10.114,0,0,0-1.187-4.87A10.032,10.032,0,0,0,5.765,2.056,7.965,7.965,0,0,0,1.542,6.573Zm8.913-1.414a9.557,9.557,0,0,1,.987,2.506,12.541,12.541,0,0,1,.356,2.547l5.089-1.93a11.542,11.542,0,0,0-2.177-4.434A7.482,7.482,0,0,0,9.125,1.179,6.706,6.706,0,0,0,7.088,1.5,11.585,11.585,0,0,1,10.455,5.159Z" transform="translate(0)" fill="#fff"/>
</svg>
