<svg width="38" height="20" viewBox="0 0 38 20" fill="none" xmlns="http://www.w3.org/2000/svg">
    <path d="M6.39 3.97c.49-.26 1.11-.4 1.87-.4 1.19 0 2.32.3 3.39.89l.57-2.64c-.55-.28-1.15-.49-1.78-.63-.63-.14-1.36-.2-2.2-.2-1.03 0-1.97.17-2.82.51-.85.34-1.56.82-2.13 1.43-.57.62-.93 1.32-1.1 2.12-.07.37-.1.67-.1.91 0 .73.24 1.36.71 1.9.47.53 1.22 1.03 2.25 1.49.95.42 1.6.76 1.96 1.01.36.26.54.58.54.97 0 .58-.24 1.04-.72 1.38-.48.34-1.16.51-2.04.51-.7 0-1.42-.09-2.15-.26-.73-.18-1.42-.44-2.07-.79L0 14.89c.49.27 1.14.49 1.95.65.81.16 1.65.24 2.52.24 1.84 0 3.3-.36 4.38-1.08 1.08-.72 1.76-1.72 2.03-3 .08-.39.12-.74.12-1.06 0-.74-.23-1.36-.7-1.85s-1.24-.97-2.32-1.46c-.69-.3-1.19-.53-1.5-.69-.31-.16-.56-.34-.74-.54-.18-.2-.27-.44-.27-.72 0-.07.01-.17.04-.3.11-.49.41-.86.89-1.13l-.01.02zm28.31.72-1.02 5.08c-.15.74-.59 1.39-1.24 1.78l-.27.15c-.5.24-1 .36-1.52.36s-.87-.09-1.1-.27c-.23-.18-.35-.48-.36-.9 0-.23.02-.47.07-.73l1.12-5.48h-3.06l-1.17 5.81c-.06.28-.09.6-.09.97.01.9.3 1.62.87 2.17.57.54 1.37.82 2.39.82.68 0 1.35-.12 2.02-.36.67-.24 1.27-.61 1.8-1.11l-.33 1.15c-.26.89-.65 1.55-1.16 2-.52.44-1.26.67-2.23.67-1.38 0-2.54-.23-3.48-.69l-.44 2.24c.39.2.91.36 1.55.48s1.28.18 1.93.18c2.14 0 3.75-.45 4.84-1.34 1.09-.89 1.8-2.2 2.15-3.92L37.8 4.7h-3.06l-.04-.01zm-10.76 6.4v-.02a5.632 5.632 0 0 0-4.89-6.73 5.632 5.632 0 0 0-6.23 4.97 5.626 5.626 0 0 0 4.97 6.23 5.54 5.54 0 0 0 2.98-.48c1.53.86 3.21.8 3.94.72.24-.01.38-.05.38-.05-1.65-1.23-1.15-4.64-1.15-4.64zm-2.46-.8A3.073 3.073 0 0 1 18.07 13c-1.69-.2-2.91-1.72-2.71-3.41a3.073 3.073 0 0 1 3.41-2.71c1.69.2 2.91 1.72 2.71 3.41z" fill="url(#b4u66iacha)"/>
    <defs>
        <linearGradient id="b4u66iacha" x1="1" y1="10" x2="37.77" y2="10" gradientUnits="userSpaceOnUse">
            <stop stop-color="#FF3600"/>
            <stop offset=".52" stop-color="#F85612"/>
            <stop offset="1" stop-color="#F17624"/>
        </linearGradient>
    </defs>
</svg>
