<svg width="16" height="15" viewBox="0 0 16 15" fill="none" xmlns="http://www.w3.org/2000/svg">
    <path d="M13.673 8.71v-.024c.046-.193.069-.363.091-.568a6.397 6.397 0 0 0-5.646-7.077 6.397 6.397 0 0 0-7.077 5.646 6.39 6.39 0 0 0 5.646 7.077 6.293 6.293 0 0 0 3.385-.545c1.738.977 3.647.909 4.476.818.273-.012.432-.057.432-.057-1.875-1.397-1.307-5.27-1.307-5.27zM10.88 7.8a3.491 3.491 0 0 1-3.874 3.079c-1.92-.227-3.306-1.954-3.078-3.874A3.491 3.491 0 0 1 7.8 3.927c1.92.227 3.306 1.954 3.079 3.873z" stroke="#C82027" stroke-width="1.5" stroke-linecap="round" stroke-linejoin="round"/>
</svg>
