<svg width="68" height="72" viewBox="0 0 68 72" fill="none" xmlns="http://www.w3.org/2000/svg">
    <path d="M33.804.983c.043-.214.35-.214.392 0l4.184 20.972a.2.2 0 0 0 .332.108L54.424 7.555c.16-.148.409.032.317.231L45.8 27.212a.2.2 0 0 0 .205.282l21.238-2.501c.218-.026.312.266.122.373L48.71 35.826a.2.2 0 0 0 0 .348l18.653 10.46c.19.107.096.399-.122.373l-21.238-2.501a.2.2 0 0 0-.205.282l8.942 19.426c.092.199-.157.379-.317.23L38.712 49.938a.2.2 0 0 0-.332.108l-4.184 20.972c-.043.214-.35.214-.392 0L29.62 50.045a.2.2 0 0 0-.332-.108L13.576 64.445c-.16.148-.409-.032-.317-.231L22.2 44.788a.2.2 0 0 0-.205-.282L.758 47.007c-.218.026-.312-.266-.122-.373l18.653-10.46a.2.2 0 0 0 0-.348L.636 25.366c-.19-.107-.096-.399.122-.373l21.238 2.501a.2.2 0 0 0 .205-.282L13.259 7.786c-.091-.199.157-.379.317-.23l15.712 14.507a.2.2 0 0 0 .332-.108L33.804.983z" fill="#FFE39E"/>
</svg>
