<svg width="24" height="24" viewBox="0 0 24 24" fill="none" xmlns="http://www.w3.org/2000/svg">
    <path clip-rule="evenodd" d="M5 12.954A4.093 4.093 0 0 0 9.14 17h2.006a2 2 0 0 1 1.444.618l1.069 1.118a.9.9 0 0 0 1.281 0L16.6 17l.545-.608c.1-.109.21-.21.327-.3A4 4 0 0 0 19 12.954v-4.91A4.093 4.093 0 0 0 14.86 4H9.14A4.093 4.093 0 0 0 5 8.044v4.91z" stroke="#545454" stroke-width="1.5" stroke-linecap="round" stroke-linejoin="round"/>
    <path clip-rule="evenodd" d="M7 10.5a1 1 0 1 1 2 0 1 1 0 0 1-2 0zM11 10.5a1 1 0 1 1 2 0 1 1 0 0 1-2 0zM15 10.5a1 1 0 1 1 2 0 1 1 0 0 1-2 0z" stroke="#545454" stroke-linecap="round" stroke-linejoin="round"/>
</svg>
