<svg width="24" height="24" viewBox="0 0 24 24" fill="none" xmlns="http://www.w3.org/2000/svg">
    <path clip-rule="evenodd" d="M13.167 18.086a.875.875 0 0 1-.83.914h-1.673a.875.875 0 0 1-.83-.914v-1.775a4.958 4.958 0 1 1 6.666-4.665 4.953 4.953 0 0 1-3.333 4.665v1.775z" stroke="#C82027" stroke-width="1.5" stroke-linecap="round" stroke-linejoin="round"/>
    <path d="M13.167 17.061a.75.75 0 0 0 0-1.5v1.5zm-3.334-1.5a.75.75 0 0 0 0 1.5v-1.5zM21 12.396a.75.75 0 0 0 0-1.5v1.5zm-2-1.5a.75.75 0 0 0 0 1.5v-1.5zm-15 1.5a.75.75 0 0 0 0-1.5v1.5zm-2-1.5a.75.75 0 0 0 0 1.5v-1.5zm16.745-5.362a.75.75 0 1 0-1.054-1.068l1.054 1.068zm-2.472.332a.75.75 0 1 0 1.054 1.068l-1.054-1.068zm-9.545 11.56a.75.75 0 0 0-1.056-1.066l1.056 1.066zm-2.47.334a.75.75 0 0 0 1.056 1.066L4.258 17.76zm13.435 1.066a.75.75 0 0 0 1.056-1.066l-1.056 1.066zm-.358-2.466a.75.75 0 0 0-1.056 1.066l1.056-1.066zM5.673 6.934a.75.75 0 0 0 1.054-1.068L5.673 6.934zM5.31 4.466a.75.75 0 0 0-1.054 1.068L5.31 4.466zm7.858 11.095H9.833v1.5h3.334v-1.5zM21 10.896h-2v1.5h2v-1.5zm-17 0H2v1.5h2v-1.5zm13.691-6.43-1.418 1.4 1.054 1.068 1.418-1.4-1.054-1.068zM5.672 16.36l-1.414 1.4 1.056 1.066 1.414-1.4-1.056-1.066zm13.077 1.4-1.414-1.4-1.056 1.066 1.414 1.4 1.056-1.066zM6.727 5.866l-1.418-1.4-1.054 1.068 1.418 1.4 1.054-1.068z" fill="#C82027"/>
</svg>
