<svg width="24" height="24" viewBox="0 0 24 24" fill="none" xmlns="http://www.w3.org/2000/svg">
    <path clip-rule="evenodd" d="M14.424 7.281a2.279 2.279 0 1 1-4.558-.004 2.279 2.279 0 0 1 4.558.004zM14.497 12.919h-4.7a3.042 3.042 0 0 0 0 6.08h4.7a3.042 3.042 0 0 0 0-6.08v0zM20.188 9.024a1.743 1.743 0 1 1-3.486-.002 1.743 1.743 0 0 1 3.486.002v0zM3.834 9.024a1.743 1.743 0 1 0 3.486 0 1.743 1.743 0 0 0-3.486 0v0z" stroke="#545454" stroke-width="1.5" stroke-linecap="round" stroke-linejoin="round"/>
    <path d="M18.937 12.839a.75.75 0 0 0 0 1.5v-1.5zm1.307.75.015-.75h-.015v.75zm0 4.65v.75h.015l-.015-.75zm-1.307-.75a.75.75 0 0 0 0 1.5v-1.5zM5.085 14.34a.75.75 0 0 0 0-1.5v1.5zm-1.307-.75v-.75h-.016l.016.75zm0 4.65-.016.75h.016v-.75zm1.307.75a.75.75 0 0 0 0-1.5v1.5zm13.852-4.65h1.307v-1.5h-1.307v1.5zm1.291 0a1.576 1.576 0 0 1 1.543 1.575h1.5a3.076 3.076 0 0 0-3.012-3.075l-.03 1.5zm1.543 1.575c0 .858-.685 1.558-1.543 1.576l.031 1.5a3.076 3.076 0 0 0 3.012-3.076h-1.5zm-1.527 1.576h-1.307v1.5h1.307v-1.5zm-15.16-4.651H3.779v1.5h1.307v-1.5zm-1.322 0A3.076 3.076 0 0 0 .75 15.914h1.5c0-.857.686-1.557 1.543-1.575l-.03-1.5zM.75 15.914a3.076 3.076 0 0 0 3.012 3.076l.031-1.5a1.576 1.576 0 0 1-1.543-1.576H.75zm3.028 3.076h1.307v-1.5H3.778v1.5z" fill="#545454"/>
</svg>
