<svg width="24" height="24" viewBox="0 0 24 24" fill="none" xmlns="http://www.w3.org/2000/svg">
    <path clip-rule="evenodd" d="M17 5H7a4 4 0 0 0-4 4v6a4 4 0 0 0 4 4h10a4 4 0 0 0 4-4V9a4 4 0 0 0-4-4z" stroke="#C82027" stroke-width="1.5" stroke-linecap="round" stroke-linejoin="round"/>
    <path d="M9.43 9.84a.75.75 0 0 0 .449-1.432l-.45 1.432zM8.841 9v-.75h-.02l.02.75zM6 12l.75.02v-.04L6 12zm2.842 3-.02.75a.66.66 0 0 0 .02 0V15zm.812-.124.225.716a.791.791 0 0 0 .015-.005l-.24-.711zM11.684 12l.75-.012a.75.75 0 0 0-.75-.738V12zm-2.842-.75a.75.75 0 0 0 0 1.5v-1.5zM12.83 15a.75.75 0 1 0 1.5 0h-1.5zm1.5-6a.75.75 0 0 0-1.5 0h1.5zm1.658 6a.75.75 0 1 0 1.5 0h-1.5zm1.5-3.333a.75.75 0 0 0-1.5 0h1.5zm-1.5 0a.75.75 0 1 0 1.5 0h-1.5zm.75-1.334h.75v-.02l-.75.02zm1.284-.583a.75.75 0 0 0-.042-1.5l.042 1.5zm-1.284 2.667a.75.75 0 0 0 0-1.5v1.5zm-1.263-1.5a.75.75 0 1 0 0 1.5v-1.5zm1.263 0a.75.75 0 1 0 0 1.5v-1.5zm1.263 1.5a.75.75 0 0 0 0-1.5v1.5zM9.88 8.408A3.45 3.45 0 0 0 8.84 8.25l.002 1.5c.199 0 .397.03.586.09l.45-1.432zM8.82 8.25a3.674 3.674 0 0 0-3.57 3.77l1.499-.04a2.174 2.174 0 0 1 2.113-2.23l-.042-1.5zm-3.57 3.73a3.674 3.674 0 0 0 3.57 3.77l.042-1.5a2.174 2.174 0 0 1-2.113-2.23l-1.5-.04zm3.59 3.77c.352 0 .702-.053 1.038-.158l-.45-1.432c-.19.06-.387.09-.586.09l-.002 1.5zm1.053-.163a3.735 3.735 0 0 0 2.54-3.599l-1.5.024a2.235 2.235 0 0 1-1.52 2.153l.48 1.422zm1.79-4.337H8.842v1.5h2.842v-1.5zM14.33 15V9h-1.5v6h1.5zm3.158 0v-3.333h-1.5V15h1.5zm0-3.333v-1.334h-1.5v1.334h1.5zm0-1.353a.55.55 0 0 1 .534-.564l-.042-1.5a2.05 2.05 0 0 0-1.992 2.102l1.5-.038zm-.75.603h-1.263v1.5h1.263v-1.5zm0 1.5H18v-1.5h-1.263v1.5z" fill="#C82027"/>
</svg>
