<svg width="24" height="24" viewBox="0 0 24 24" fill="none" xmlns="http://www.w3.org/2000/svg">
    <path d="M10.282 4.75a.75.75 0 0 0 0 1.5v-1.5zm3.4 1.5a.75.75 0 1 0 0-1.5v1.5zm-2.95 11.25a.75.75 0 1 0-1.5 0h1.5zm4 0a.75.75 0 1 0-1.5 0h1.5zm-2.75-10.174.021-.75h-.042l.02.75zm4.994 4.432.747-.066a.736.736 0 0 0-.005-.044l-.742.11zm.6 3-.715.226a.75.75 0 0 0 .114.223l.6-.449zm.233 1.912.647.378a.757.757 0 0 0 .044-.087l-.691-.291zm-1.42.827v.75h.009l-.01-.75zm-8.816 0-.01.75h.01v-.75zm-1.42-.827-.691.292c.012.03.027.058.043.086l.648-.378zm.229-1.909.602.447a.75.75 0 0 0 .113-.22l-.715-.227zm.6-3-.742-.11a.747.747 0 0 0-.005.044l.747.066zm3.3-5.511h3.4v-1.5h-3.4v1.5zM9.232 17.5a2.75 2.75 0 0 0 2.75 2.75v-1.5c-.69 0-1.25-.56-1.25-1.25h-1.5zm2.75 2.75a2.75 2.75 0 0 0 2.75-2.75h-1.5c0 .69-.56 1.25-1.25 1.25v1.5zM11.96 8.076a4.45 4.45 0 0 1 4.274 3.792l1.484-.22a5.95 5.95 0 0 0-5.715-5.072l-.043 1.5zm4.269 3.748c.095 1.073.307 2.133.632 3.16l1.43-.452a13.303 13.303 0 0 1-.568-2.84l-1.494.132zm.746 3.383c.252.337.306.783.143 1.172l1.382.582a2.688 2.688 0 0 0-.323-2.652l-1.202.898zm.186 1.085a.918.918 0 0 1-.782.455l.019 1.5a2.418 2.418 0 0 0 2.058-1.199l-1.295-.756zm-.772.455H7.573v1.5h8.816v-1.5zm-8.807 0a.918.918 0 0 1-.782-.455l-1.295.756a2.418 2.418 0 0 0 2.059 1.199l.018-1.5zm-.738-.369a1.188 1.188 0 0 1 .14-1.17l-1.205-.894a2.688 2.688 0 0 0-.317 2.648l1.382-.584zm.253-1.39c.325-1.028.537-2.088.632-3.16l-1.494-.133a13.3 13.3 0 0 1-.568 2.84l1.43.452zm.627-3.117a4.45 4.45 0 0 1 4.278-3.795l-.041-1.5a5.95 5.95 0 0 0-5.721 5.075l1.484.22z" fill="#fff"/>
</svg>
