<svg width="24" height="24" viewBox="0 0 24 24" fill="none" xmlns="http://www.w3.org/2000/svg">
    <path d="M6.464 11.166a.75.75 0 1 0 1.366-.62l-1.366.62zm-1.302-1.58-.01.75h.015l-.005-.75zM3 11.69l-.75-.01v.01H3zm0 4.212h-.75v.011l.75-.011zm2.162 2.1.006-.75h-.016l.01.75zm2.767-1.214a.75.75 0 0 0-1.418-.487l1.418.487zm-.097-6.238a.75.75 0 0 0-1.37.61l1.37-.61zm-.508 1.14-.75-.001h.75zm0 4.212h-.75v.005l.75-.005zm-.813.415a.75.75 0 0 0 1.426.463l-1.426-.463zm-.035-5.797a.75.75 0 0 0 1.342.669l-1.342-.669zm1.379-.534-.443-.606a.745.745 0 0 0-.02.016l.463.59zm.378-.536.719.214a.763.763 0 0 0 .007-.027l-.726-.187zm1.081-4.2-.72-.21a.772.772 0 0 0-.006.023l.726.187zm2.119-1.19-.196.724a.784.784 0 0 0 .017.004l.179-.728zm1.044.773-.645.383.645-.383zm.179 1.288.723.199.002-.007-.725-.192zm-.618 2.243-.723-.2-.003.012.726.188zm.155.736-.59.465.59-.465zm.68.323v-.75h-.013l.013.75zm3.532 0v.75h.01l-.01-.75zm1.82.725.524-.537-.523.537zm.775 1.8h.75v-.01l-.75.01zm0 3.368.75.01v-.01H19zm-.774 1.8-.523-.538.523.538zm-1.821.725.01-.75h-.01v.75zm-6.919 0v-.75h-.004l.004.75zm-1.618-1.673a.75.75 0 1 0-1.296.754l1.296-.754zm-.038-5.623a2.915 2.915 0 0 0-2.673-1.71l.01 1.5a1.415 1.415 0 0 1 1.297.83l1.366-.62zm-2.658-1.71A2.884 2.884 0 0 0 2.25 11.68l1.5.02a1.384 1.384 0 0 1 1.402-1.365l.02-1.5zM2.25 11.69v4.212h1.5V11.69h-1.5zm0 4.223a2.884 2.884 0 0 0 2.922 2.839l-.02-1.5c-.763.01-1.39-.6-1.402-1.362l-1.5.024zm2.906 2.839c1.25.01 2.367-.781 2.773-1.964l-1.418-.487a1.408 1.408 0 0 1-1.343.95l-.012 1.5zm1.306-7.592a1.3 1.3 0 0 1 .112.529l1.5.001c0-.393-.082-.781-.242-1.14l-1.37.61zm.112.53v4.212h1.5V11.69h-1.5zm0 4.217c.001.14-.02.278-.063.41l1.426.463a2.8 2.8 0 0 0 .137-.884l-1.5.01zm1.244-4.718c.12-.24.29-.449.5-.613l-.926-1.18a3.297 3.297 0 0 0-.916 1.124l1.342.669zm.48-.598c.313-.23.543-.555.654-.927l-1.438-.428a.277.277 0 0 1-.102.144l.886 1.21zm.661-.954 1.081-4.2-1.452-.374-1.081 4.2 1.452.374zm1.075-4.178a.985.985 0 0 1 1.203-.675l.392-1.448A2.485 2.485 0 0 0 8.594 5.04l1.44.42zm1.22-.671c.243.06.45.214.578.428l1.29-.765a2.429 2.429 0 0 0-1.51-1.12l-.358 1.457zm.578.428a.929.929 0 0 1 .1.712l1.449.385a2.429 2.429 0 0 0-.259-1.862l-1.29.765zm.1.705-.617 2.243 1.446.399.618-2.243-1.446-.399zm-.62 2.255c-.125.483-.017.997.292 1.389l1.178-.93a.097.097 0 0 1-.018-.084l-1.452-.375zm.292 1.389c.309.391.783.616 1.282.607l-.026-1.5a.097.097 0 0 1-.078-.036l-1.178.929zm1.269.608h3.532v-1.5h-3.532v1.5zm3.542 0a1.81 1.81 0 0 1 1.288.512l1.046-1.074a3.31 3.31 0 0 0-2.354-.938l.02 1.5zm1.288.512c.344.335.54.793.547 1.274l1.5-.02a3.31 3.31 0 0 0-1.001-2.328l-1.046 1.074zm.547 1.264v3.367h1.5V11.95h-1.5zm0 3.356a1.81 1.81 0 0 1-.547 1.273l1.046 1.075a3.31 3.31 0 0 0 1-2.327l-1.499-.02zm-.547 1.273a1.81 1.81 0 0 1-1.288.513l-.02 1.5a3.31 3.31 0 0 0 2.354-.938l-1.046-1.075zm-1.298.513H9.486v1.5h6.919v-1.5zm-6.923 0a1.856 1.856 0 0 1-1.614-.923l-1.296.754a3.356 3.356 0 0 0 2.918 1.669l-.008-1.5z" fill="#C82027"/>
</svg>
