<svg width="44" height="44" viewBox="0 0 44 44" fill="none" xmlns="http://www.w3.org/2000/svg">
    <path clip-rule="evenodd" d="M7.333 19.736v9.058a6.076 6.076 0 0 0 6.111 6.04h15.277a6.076 6.076 0 0 0 6.113-6.04v-9.058a6.076 6.076 0 0 0-6.111-6.04H13.444a6.076 6.076 0 0 0-6.11 6.04z" stroke="#fff" stroke-width="2" stroke-linecap="round" stroke-linejoin="round"/>
    <path clip-rule="evenodd" d="M21.083 28.794a4.53 4.53 0 1 1 4.584-4.53 4.556 4.556 0 0 1-4.584 4.53z" stroke="#fff" stroke-width="2" stroke-linecap="round" stroke-linejoin="round"/>
    <path d="M16.5 13.697v-1.51a3.038 3.038 0 0 1 3.056-3.02h3.054a3.038 3.038 0 0 1 3.057 3.02v1.51" stroke="#fff" stroke-width="2" stroke-linecap="round" stroke-linejoin="round"/>
</svg>
