<svg width="24" height="24" viewBox="0 0 24 24" fill="none" xmlns="http://www.w3.org/2000/svg">
    <path clip-rule="evenodd" d="M5 14.26a3.527 3.527 0 0 0 3.549 3.5h.481l1.422 1.5a.766.766 0 0 0 1.1 0l1.422-1.5h.481A3.527 3.527 0 0 0 17 14.26V10a3.527 3.527 0 0 0-3.549-3.5h-4.9A3.527 3.527 0 0 0 5 10v4.26z" stroke="#545454" stroke-width="1.5" stroke-linecap="round" stroke-linejoin="round"/>
    <path d="M6.75 6.5a.75.75 0 0 0 1.5 0h-1.5zM15.949 4v.75h.014L15.949 4zm2.484.976-.52.54.52-.54zM19.5 7.423h.75v-.014l-.75.014zM17 14.25a.75.75 0 0 0 0 1.5v-1.5zm-9-4a.75.75 0 0 0 0 1.5v-1.5zm5.765 1.5a.75.75 0 0 0 0-1.5v1.5zm-5.044.608a.75.75 0 0 0 0 1.5v-1.5zm4.323 1.5a.75.75 0 0 0 0-1.5v1.5zM8.25 6.5c0-.69.266-1.068.678-1.318.47-.284 1.195-.432 2.121-.432v-1.5c-1.034 0-2.084.156-2.898.65C7.28 4.427 6.75 5.3 6.75 6.5h1.5zm2.799-1.75h4.9v-1.5h-4.9v1.5zm4.914 0a2.737 2.737 0 0 1 1.95.765l1.04-1.08a4.237 4.237 0 0 0-3.018-1.185l.028 1.5zm1.95.765c.523.504.824 1.195.837 1.92l1.5-.027a4.237 4.237 0 0 0-1.296-2.973l-1.041 1.08zm.837 1.907v4.156h1.5V7.423h-1.5zm0 4.156c0 .907-.126 1.592-.392 2.03-.223.37-.588.642-1.358.642v1.5c1.23 0 2.115-.494 2.642-1.364.484-.8.608-1.826.608-2.808h-1.5zM8 11.75h5.765v-1.5H8v1.5zm.721 2.108h4.323v-1.5H8.721v1.5z" fill="#545454"/>
</svg>
