<svg width="44" height="44" viewBox="0 0 44 44" fill="none" xmlns="http://www.w3.org/2000/svg">
    <path clip-rule="evenodd" d="M9.167 26.144a6.466 6.466 0 0 0 6.506 6.417h.882l2.607 2.75a1.404 1.404 0 0 0 2.017 0l2.607-2.75h.881a6.466 6.466 0 0 0 6.5-6.417v-7.81a6.466 6.466 0 0 0-6.507-6.416h-8.983a6.466 6.466 0 0 0-6.51 6.416v7.81z" stroke="#A0A0A0" stroke-width="1.5" stroke-linecap="round" stroke-linejoin="round"/>
    <path d="M13 11.918a.75.75 0 0 0 1.5 0H13zm16.24-4.584v.75h.014l-.014-.75zm4.554 1.789-.52.54.52-.54zm1.956 4.485h.75v-.014l-.75.014zm-4.583 13.143a.75.75 0 0 0 0 1.5v-1.5zm-16.5-7.333a.75.75 0 0 0 0 1.5v-1.5zm10.569 1.5a.75.75 0 0 0 0-1.5v1.5zm-9.248 2.364a.75.75 0 0 0 0 1.5v-1.5zm7.926 1.5a.75.75 0 1 0 0-1.5v1.5zM14.5 11.918c0-1.477.597-2.376 1.544-2.95 1.006-.608 2.47-.884 4.212-.884v-1.5c-1.85 0-3.64.284-4.989 1.101C13.86 8.537 13 9.93 13 11.918h1.5zm5.756-3.834h8.984v-1.5h-8.983v1.5zm8.998 0a5.643 5.643 0 0 1 4.02 1.579l1.04-1.08a7.143 7.143 0 0 0-5.088-1.998l.028 1.5zm4.02 1.579A5.643 5.643 0 0 1 35 13.622l1.5-.028a7.143 7.143 0 0 0-2.185-5.011l-1.041 1.08zM35 13.608v7.62h1.5v-7.62H35zm0 7.62c0 1.695-.23 3.092-.808 4.047-.536.885-1.422 1.476-3.025 1.476v1.5c2.063 0 3.468-.813 4.308-2.199.797-1.315 1.025-3.055 1.025-4.825H35zm-20.333-.31h10.569v-1.5h-10.57v1.5zm1.322 3.864h7.925v-1.5h-7.926v1.5z" fill="#A0A0A0"/>
</svg>
