<svg width="24" height="24" viewBox="0 0 24 24" fill="none" xmlns="http://www.w3.org/2000/svg">
    <path clip-rule="evenodd" d="M10.002 12.012a2 2 0 1 1 4 0 2 2 0 0 1-4 0z" stroke="#545454" stroke-width="1.5" stroke-linecap="round" stroke-linejoin="round"/>
    <path clip-rule="evenodd" d="M10.572 5.468a1.43 1.43 0 1 1 2.859 0v.717a5.993 5.993 0 0 1 2.856 1.628l.569-.334a1.416 1.416 0 0 1 1.953.534A1.469 1.469 0 0 1 18.286 10l-.53.31a6.038 6.038 0 0 1 0 3.4l.53.312c.688.41.92 1.296.523 1.99a1.416 1.416 0 0 1-1.953.533l-.569-.334a5.993 5.993 0 0 1-2.857 1.63v.717a1.43 1.43 0 1 1-2.859 0v-.717a5.992 5.992 0 0 1-2.856-1.628l-.569.334a1.416 1.416 0 0 1-1.952-.534 1.469 1.469 0 0 1 .523-1.987l.53-.311a6.038 6.038 0 0 1 0-3.4l-.53-.311a1.469 1.469 0 0 1-.523-1.991 1.416 1.416 0 0 1 1.953-.532l.569.334a5.993 5.993 0 0 1 2.856-1.631v-.716z" stroke="#545454" stroke-width="1.5" stroke-linecap="round" stroke-linejoin="round"/>
</svg>
