<svg width="24" height="24" viewBox="0 0 24 24" fill="none" xmlns="http://www.w3.org/2000/svg">
    <path clip-rule="evenodd" d="M5 18.211V9.737a.784.784 0 0 1 .778-.789h3.111c.433.003.78.356.778.789V5.789A.784.784 0 0 1 10.444 5h3.112c.433.003.78.356.778.789v2.369a.784.784 0 0 1 .778-.789h3.111c.432.004.78.357.777.789v10.053a.784.784 0 0 1-.778.789H5.778A.784.784 0 0 1 5 18.211v0z" stroke="#545454" stroke-width="1.5" stroke-linecap="round" stroke-linejoin="round"/>
    <path d="M8.917 19a.75.75 0 0 0 1.5 0h-1.5zm1.5-9.263a.75.75 0 0 0-1.5 0h1.5zM13.583 19a.75.75 0 0 0 1.5 0h-1.5zm1.5-10.842a.75.75 0 0 0-1.5 0h1.5zM10.417 19V9.737h-1.5V19h1.5zm4.666 0V8.158h-1.5V19h1.5z" fill="#545454"/>
</svg>
