<svg width="24" height="24" viewBox="0 0 24 24" fill="none" xmlns="http://www.w3.org/2000/svg">
    <path clip-rule="evenodd" d="M7 6h5a4 4 0 0 1 4 4v.125l1.94-1.213A2 2 0 0 1 21 10.608v2.784a2 2 0 0 1-3.06 1.7L16 13.875V14a4 4 0 0 1-4 4H7a4 4 0 0 1-4-4v-4a4 4 0 0 1 4-4z" stroke="#545454" stroke-width="1.5" stroke-linecap="round" stroke-linejoin="round"/>
    <path clip-rule="evenodd" d="M9.5 14a2 2 0 1 1 0-4 2 2 0 0 1 0 4z" stroke="#545454" stroke-width="1.5" stroke-linecap="round" stroke-linejoin="round"/>
    <path d="M16 10.125v3.75" stroke="#545454" stroke-width="1.5" stroke-linecap="round"/>
</svg>
