<svg width="24" height="24" viewBox="0 0 24 24" fill="none" xmlns="http://www.w3.org/2000/svg">
    <path d="M13.233 16.457a.75.75 0 1 0 1.034 1.086l-1.034-1.086zm6.284-3.914a.75.75 0 1 0-1.034-1.086l1.034 1.086zm-1.034 0a.75.75 0 1 0 1.034-1.086l-1.034 1.086zm-4.216-6.086a.75.75 0 1 0-1.034 1.086l1.034-1.086zM19 12.75a.75.75 0 0 0 0-1.5v1.5zm-14-1.5a.75.75 0 0 0 0 1.5v-1.5zm9.267 6.293 5.25-5-1.034-1.086-5.25 5 1.034 1.086zm5.25-6.086-5.25-5-1.034 1.086 5.25 5 1.034-1.086zM19 11.25H5v1.5h14v-1.5z" fill="#C82027"/>
</svg>
