<svg width="24" height="24" viewBox="0 0 24 24" fill="none" xmlns="http://www.w3.org/2000/svg">
    <path clip-rule="evenodd" d="M15 8.5a.5.5 0 1 0 1 0 .5.5 0 0 0-1 0z" stroke="#545454" stroke-width="1.5" stroke-linecap="round" stroke-linejoin="round"/>
    <path d="M18.25 11a.75.75 0 0 0 1.5 0h-1.5zM5 15l.75.001V15H5zm.192 2.84a.75.75 0 1 0 1.202-.9l-1.202.9zM19.75 11a.75.75 0 0 0-1.5 0h1.5zM9 19v-.75.75zm-2.605-2.058a.75.75 0 1 0-1.204.896l1.204-.896zm13.109-5.386a.75.75 0 1 0-1.008-1.112l1.008 1.112zM14.3 15.26l-.504-.556-.005.005.509.551zm-.76.262-.062.747.061-.747zm-.708-.383.592-.46-.592.46zm-2.009-2.581.592-.46-.001-.002-.591.462zm-.808-.384-.016-.75.016.75zm-.792.417-.61-.437.61.437zm-4.04 4.362a.75.75 0 0 0 1.22.872l-1.22-.872zM19.75 11V9h-1.5v2h1.5zm0-2A4.75 4.75 0 0 0 15 4.25v1.5A3.25 3.25 0 0 1 18.25 9h1.5zM15 4.25H9v1.5h6v-1.5zm-6 0A4.75 4.75 0 0 0 4.25 9h1.5A3.25 3.25 0 0 1 9 5.75v-1.5zM4.25 9v6h1.5V9h-1.5zm0 5.999a4.732 4.732 0 0 0 .942 2.84l1.202-.898A3.232 3.232 0 0 1 5.75 15l-1.5-.002zm14-3.999v4h1.5v-4h-1.5zm0 4A3.25 3.25 0 0 1 15 18.25v1.5A4.75 4.75 0 0 0 19.75 15h-1.5zM15 18.25H9v1.5h6v-1.5zm-6 0a3.244 3.244 0 0 1-2.605-1.308l-1.204.896a4.744 4.744 0 0 0 3.81 1.912L9 18.25zm9.496-7.806-4.7 4.261 1.008 1.112 4.7-4.261-1.008-1.112zm-4.705 4.266a.25.25 0 0 1-.19.065l-.123 1.495a1.75 1.75 0 0 0 1.33-.458l-1.017-1.102zm-.19.065a.25.25 0 0 1-.177-.095l-1.184.92c.3.387.75.63 1.238.67l.123-1.495zm-.177-.096-2.01-2.58-1.183.92 2.01 2.582 1.183-.922zm-2.01-2.582a1.75 1.75 0 0 0-1.415-.671l.031 1.5a.25.25 0 0 1 .202.095l1.182-.924zm-1.415-.671a1.75 1.75 0 0 0-1.385.729l1.218.874a.25.25 0 0 1 .198-.104l-.03-1.5zm-1.386.73-3.43 4.798 1.22.872 3.43-4.798-1.22-.872z" fill="#545454"/>
</svg>
