<svg width="24" height="24" viewBox="0 0 24 24" fill="none" xmlns="http://www.w3.org/2000/svg">
    <path d="M5.383 12.148a.75.75 0 1 1-.759-1.293l.76 1.293zm12.174-8.011.387.642-.008.004-.38-.646zm1.019.023.416-.624-.416.624zm.414.932.742.11a.756.756 0 0 1-.037.145l-.705-.255zm-1.614 6.665a.75.75 0 0 1-1.41-.51l1.41.51zm-12.752.391a.75.75 0 1 1 .76-1.293l-.76 1.293zm12.933 6.719.38-.647.007.004-.387.643zm1.019-.024.416.624-.416-.624zm.414-.931.705-.256c.017.047.03.096.037.146l-.742.11zm-3.025-6.155a.75.75 0 1 1 1.411-.51l-1.41.51zm-10.961.495a.75.75 0 0 1 0-1.5v1.5zm11.667-1.5a.75.75 0 1 1 0 1.5v-1.5zm-12.047.103L17.177 3.49l.76 1.293-12.554 7.365-.759-1.293zm12.546-7.36a1.702 1.702 0 0 1 1.822.04l-.832 1.249a.202.202 0 0 0-.216-.005l-.774-1.285zm1.822.04c.548.366.836 1.015.74 1.667l-1.484-.22a.202.202 0 0 0-.088-.198l.832-1.248zm.703 1.812-2.319 6.41-1.41-.51 2.318-6.41 1.411.51zM5.383 10.855l12.553 7.365-.759 1.293-12.553-7.365.76-1.293zm12.56 7.37c.068.04.152.038.217-.006l.832 1.248a1.702 1.702 0 0 1-1.822.042l.774-1.285zm.217-.006c.065-.043.1-.12.088-.198l1.484-.22c.096.652-.192 1.301-.74 1.666l-.832-1.248zm.124-.052-2.319-6.41 1.411-.51 2.319 6.41-1.41.51zm-13.28-7.415H16.67v1.5H5.004v-1.5z" fill="#C82027"/>
</svg>
