<svg width="24" height="24" viewBox="0 0 24 24" fill="none" xmlns="http://www.w3.org/2000/svg">
    <path clip-rule="evenodd" d="M16.167 9H7.833A.833.833 0 0 0 7 9.833V16.5A2.5 2.5 0 0 0 9.5 19h5a2.5 2.5 0 0 0 2.5-2.5V9.833A.833.833 0 0 0 16.167 9zM15 7l-.724-1.447A1 1 0 0 0 13.382 5h-2.764a1 1 0 0 0-.894.553L9 7h6z" stroke="#C82027" stroke-width="1.5" stroke-linecap="round" stroke-linejoin="round"/>
    <path d="M11.083 12.333a.75.75 0 0 0-1.5 0h1.5zm-1.5 3.333a.75.75 0 0 0 1.5 0h-1.5zm4.834-3.333a.75.75 0 0 0-1.5 0h1.5zm-1.5 3.333a.75.75 0 0 0 1.5 0h-1.5zM15 6.25a.75.75 0 0 0 0 1.5v-1.5zm2 1.5a.75.75 0 0 0 0-1.5v1.5zm-8 0a.75.75 0 0 0 0-1.5v1.5zm-2-1.5a.75.75 0 0 0 0 1.5v-1.5zm2.583 6.083v3.333h1.5v-3.333h-1.5zm3.334 0v3.333h1.5v-3.333h-1.5zM15 7.75h2v-1.5h-2v1.5zm-6-1.5H7v1.5h2v-1.5z" fill="#C82027"/>
</svg>
