<svg width="340" height="170" viewBox="0 0 340 170" fill="none" xmlns="http://www.w3.org/2000/svg">
    <mask id="m5bvzv23fa" style="mask-type:alpha" maskUnits="userSpaceOnUse" x="0" y="0" width="340" height="170">
        <path fill="#C4C4C4" d="M0 0h340v170H0z"/>
    </mask>
    <g mask="url(#m5bvzv23fa)">
        <path d="m289.385 25.533-.013.056v.512l-.004.026-.025.182a148.83 148.83 0 0 0-.415 3.42 214.719 214.719 0 0 0-.835 9.891c-.517 8.313-.785 19.714.211 32.061 1.961 24.312 8.837 52.459 28.555 67.808-.367.079-.833.171-1.39.268-1.571.272-3.873.575-6.784.697l-.017.001-.017.001c-17.818 1.955-58.782 3.413-96.069-17.565l-.224-.126-.233.109c-21.93 10.244-46.786 14.634-72.619 11.707-75.55-8.537-129.65-76.347-121.121-151.965C26.915-93 94.908-147.152 170.21-138.614c75.549 8.537 129.651 76.592 121.121 151.964v.001c-.489 4.4-.975 8.05-1.947 12.182zm-143.146 47.86c41.612 4.928 79.282-25.138 83.961-66.784 4.923-41.652-25.117-79.106-66.722-84.035-41.613-4.929-79.282 25.138-83.961 66.784-4.924 41.651 25.117 79.106 66.722 84.034z" stroke="#ECECEC"/>
    </g>
</svg>
